<?xml version="1.0" encoding="UTF-8" standalone="no"?>
<!DOCTYPE svg PUBLIC "-//W3C//DTD SVG 1.1//EN" "http://www.w3.org/Graphics/SVG/1.1/DTD/svg11.dtd">
<svg width="100%" height="100%" viewBox="0 0 140 226" version="1.1" xmlns="http://www.w3.org/2000/svg" xmlns:xlink="http://www.w3.org/1999/xlink" xml:space="preserve" xmlns:serif="http://www.serif.com/" style="fill-rule:evenodd;clip-rule:evenodd;stroke-linejoin:round;stroke-miterlimit:2;">
***REMOVED******REMOVED***<g transform="matrix(1,0,0,1,-3.18573,-2.98461)">
***REMOVED******REMOVED******REMOVED******REMOVED***<g transform="matrix(0.142025,0,0,0.300791,0,0)">
***REMOVED******REMOVED******REMOVED******REMOVED******REMOVED******REMOVED***<g transform="matrix(-4.97875,-2.35082,-5.18568,2.44853,1342.92,265.454)">
***REMOVED******REMOVED******REMOVED******REMOVED******REMOVED******REMOVED******REMOVED******REMOVED***<path d="M97.258,32.17C101.921,29.624 108.186,29.655 114.4,31.992C114.667,31.435 114.811,30.843 114.811,30.228C114.811,26.974 110.766,24.331 105.784,24.331C100.801,24.331 96.756,26.974 96.756,30.228C96.756,30.908 96.933,31.562 97.258,32.17ZM133.507,66.972C134.14,67.284 134.821,67.454 135.529,67.454C138.919,67.454 141.671,63.57 141.671,58.787C141.671,54.003 138.919,50.119 135.529,50.119C134.889,50.119 134.272,50.258 133.692,50.514C136.126,56.48 136.158,62.495 133.507,66.972Z" style="fill:rgb(234,91,65);"/>
***REMOVED******REMOVED******REMOVED******REMOVED******REMOVED******REMOVED***</g>
***REMOVED******REMOVED******REMOVED******REMOVED******REMOVED******REMOVED***<g transform="matrix(-7.04101,0,0,3.32457,1373.66,-28.8822)">
***REMOVED******REMOVED******REMOVED******REMOVED******REMOVED******REMOVED******REMOVED******REMOVED***<path d="M122.532,26.999C122.526,26.999 122.52,26.999 122.514,26.999C122.438,26.999 122.361,26.999 122.285,26.999C122.279,26.999 122.273,26.999 122.267,26.999C119.255,27.018 116.359,27.387 113.655,28.049L103.267,12.326C102.824,11.655 101.918,11.47 101.247,11.914C100.575,12.357 100.39,13.263 100.834,13.934L110.724,28.905C110.307,29.048 109.896,29.198 109.491,29.354C109.3,29.08 109.084,28.822 108.844,28.582C107.607,27.345 105.887,26.752 103.961,26.824C101.411,26.919 98.46,28.216 96.055,30.622C93.649,33.028 92.351,35.979 92.256,38.529C92.184,40.455 92.778,42.174 94.014,43.411C94.356,43.753 94.734,44.044 95.142,44.287C94.974,45.184 94.887,46.099 94.887,47.028C94.887,47.683 94.93,48.33 95.015,48.97C94.837,49.125 94.664,49.282 94.496,49.441L74.789,27.569C74.512,27.262 74.118,27.087 73.705,27.087L60.221,27.087C59.417,27.087 58.763,27.741 58.763,28.545C58.763,29.35 59.417,30.004 60.221,30.004L73.056,30.004L92.554,51.642C91.201,53.527 90.48,55.566 90.48,57.675C90.48,58.066 90.505,58.454 90.553,58.839L68.133,58.839C67.327,58.839 66.674,59.492 66.674,60.297L66.674,87.492L54.35,87.492C53.545,87.492 52.891,88.146 52.891,88.951C52.891,89.755 53.545,90.409 54.35,90.409L68.133,90.409C68.938,90.409 69.591,89.756 69.591,88.951L69.591,61.756L91.403,61.756C91.458,61.875 91.516,61.994 91.576,62.113C90.55,63.37 89.471,65.117 88.376,67.282C83.556,76.808 78.106,94.774 73.676,112.896L73.514,113.093C73.169,113.512 73.097,114.067 73.277,114.541C69.353,130.827 66.293,147.036 65.291,157.157C65.127,158.82 64.972,160.453 64.827,162.055C64.825,162.066 64.824,162.078 64.823,162.089C62.717,185.311 62.593,202.236 63.869,213.96C63.871,214.045 63.88,214.13 63.897,214.213C64.349,218.279 64.971,221.712 65.738,224.559C68.062,233.185 71.921,236.711 76.149,236.711C77.529,236.711 79.234,235.955 81.098,234.412C81.317,234.231 81.539,234.039 81.765,233.836C81.775,233.827 81.785,233.818 81.794,233.809C83.998,231.816 86.509,228.793 89.15,225.064C93.464,218.975 98.157,210.98 102.501,202.628C102.543,202.562 102.579,202.493 102.609,202.421C103.844,200.042 105.051,197.634 106.212,195.235C110.957,199.725 116.414,202.283 122.2,202.372C122.228,202.374 122.256,202.375 122.285,202.375C122.323,202.375 122.361,202.374 122.399,202.374C122.438,202.374 122.476,202.375 122.514,202.375C122.543,202.375 122.571,202.374 122.599,202.372C128.385,202.283 133.842,199.725 138.587,195.235C139.748,197.634 140.955,200.042 142.19,202.421C142.22,202.493 142.256,202.562 142.298,202.628C146.642,210.98 151.335,218.975 155.649,225.064C158.29,228.793 160.801,231.816 163.004,233.809C163.014,233.818 163.024,233.827 163.034,233.836C163.26,234.039 163.482,234.231 163.701,234.412C165.565,235.955 167.27,236.711 168.65,236.711C172.878,236.711 176.736,233.185 179.061,224.559C179.828,221.712 180.45,218.279 180.902,214.213C180.919,214.13 180.928,214.045 180.93,213.96C182.206,202.236 182.082,185.311 179.976,162.089C179.975,162.078 179.974,162.066 179.972,162.055C179.827,160.453 179.672,158.82 179.508,157.157C178.506,147.036 175.446,130.827 171.522,114.541C171.702,114.067 171.63,113.512 171.285,113.093L171.123,112.896C166.693,94.774 161.243,76.808 156.423,67.282C155.327,65.117 154.248,63.37 153.223,62.113C153.283,61.994 153.341,61.875 153.396,61.756L175.208,61.756L175.208,88.951C175.208,89.756 175.861,90.409 176.666,90.409L190.449,90.409C191.254,90.409 191.908,89.755 191.908,88.951C191.908,88.146 191.254,87.492 190.449,87.492L178.125,87.492L178.125,60.297C178.125,59.492 177.472,58.839 176.666,58.839L154.246,58.839C154.294,58.454 154.319,58.066 154.319,57.675C154.319,55.566 153.598,53.527 152.245,51.642L171.743,30.004L184.578,30.004C185.382,30.004 186.036,29.35 186.036,28.545C186.036,27.741 185.382,27.087 184.578,27.087L171.094,27.087C170.68,27.087 170.287,27.262 170.01,27.569L150.303,49.441C150.135,49.282 149.962,49.125 149.784,48.97C149.869,48.33 149.912,47.683 149.912,47.028C149.912,46.099 149.825,45.184 149.657,44.287C150.065,44.044 150.443,43.753 150.785,43.411C152.021,42.174 152.615,40.455 152.543,38.529C152.447,35.979 151.15,33.028 148.744,30.622C146.338,28.216 143.387,26.919 140.838,26.824C138.911,26.752 137.192,27.345 135.955,28.582C135.715,28.822 135.499,29.08 135.308,29.354C134.903,29.198 134.492,29.048 134.075,28.905L143.965,13.934C144.409,13.263 144.224,12.357 143.552,11.914C142.881,11.47 141.975,11.655 141.532,12.326L131.144,28.049C128.44,27.387 125.544,27.018 122.532,26.999ZM122.399,199.457C116.977,199.422 111.914,196.851 107.542,192.459C108.948,189.471 110.271,186.518 111.48,183.668C114.847,184.645 118.48,185.189 122.268,185.211C122.273,185.211 122.279,185.211 122.285,185.211C122.361,185.212 122.438,185.212 122.514,185.211C122.52,185.211 122.526,185.211 122.531,185.211C126.319,185.189 129.952,184.645 133.319,183.668C134.528,186.518 135.851,189.471 137.257,192.459C132.885,196.851 127.822,199.422 122.399,199.457ZM122.514,182.295C122.438,182.295 122.361,182.295 122.285,182.295C118.894,182.275 115.638,181.805 112.608,180.957C113.707,178.26 114.689,175.682 115.522,173.288C117.698,173.65 119.955,173.847 122.269,173.86C122.274,173.86 122.279,173.86 122.285,173.86C122.361,173.86 122.438,173.86 122.514,173.86C122.52,173.86 122.525,173.86 122.53,173.86C124.844,173.847 127.101,173.65 129.277,173.288C130.11,175.682 131.092,178.26 132.191,180.957C129.161,181.805 125.905,182.275 122.514,182.295ZM122.514,170.944C122.438,170.944 122.361,170.944 122.285,170.944C120.291,170.932 118.342,170.774 116.456,170.484C116.899,169.083 117.281,167.764 117.593,166.542C118.308,163.739 118.858,160.821 119.255,157.821C120.247,157.901 121.251,157.946 122.267,157.952C122.273,157.952 122.279,157.952 122.285,157.952C122.361,157.952 122.438,157.952 122.514,157.952C122.52,157.952 122.526,157.952 122.532,157.952C123.548,157.946 124.552,157.901 125.544,157.821C125.941,160.821 126.491,163.739 127.206,166.542C127.518,167.764 127.9,169.083 128.343,170.484C126.457,170.774 124.508,170.932 122.514,170.944ZM122.514,155.035C122.438,155.035 122.361,155.035 122.285,155.035C121.379,155.03 120.483,154.991 119.598,154.922C121.329,138.289 119.304,118.102 115.544,100.657C115.54,100.638 115.536,100.62 115.531,100.601C115.153,98.846 114.756,97.118 114.344,95.425C116.904,94.157 119.605,93.464 122.399,93.445C125.194,93.464 127.895,94.157 130.455,95.425C130.043,97.118 129.646,98.846 129.268,100.601C129.263,100.62 129.259,100.638 129.255,100.657C125.495,118.102 123.47,138.289 125.201,154.922C124.316,154.991 123.42,155.03 122.514,155.035ZM122.599,90.531C122.571,90.529 122.543,90.528 122.514,90.528C122.476,90.528 122.438,90.528 122.399,90.529C122.361,90.528 122.323,90.528 122.285,90.528C122.256,90.528 122.228,90.529 122.2,90.531C119.233,90.577 116.355,91.271 113.614,92.541C112.878,89.703 112.1,86.976 111.29,84.394C114.03,85.287 118.311,86.447 122.199,86.508C122.227,86.51 122.256,86.51 122.285,86.51C122.323,86.51 122.361,86.51 122.399,86.51C122.438,86.51 122.476,86.51 122.514,86.51C122.543,86.51 122.571,86.51 122.6,86.508C126.488,86.447 130.769,85.287 133.509,84.394C132.699,86.976 131.921,89.703 131.185,92.541C128.444,91.271 125.566,90.577 122.599,90.531ZM122.399,83.593C117.542,83.563 111.964,81.6 110.147,80.909C109.705,79.618 109.255,78.373 108.799,77.176C108.145,75.459 107.477,73.841 106.802,72.338C111.361,73.662 116.642,74.432 122.274,74.453C122.277,74.453 122.281,74.453 122.285,74.453C122.361,74.453 122.438,74.453 122.514,74.453C122.518,74.453 122.522,74.453 122.525,74.453C128.157,74.432 133.438,73.662 137.997,72.338C137.322,73.841 136.654,75.459 136,77.176C135.544,78.373 135.094,79.618 134.652,80.909C132.835,81.6 127.257,83.563 122.399,83.593ZM122.514,71.537C122.438,71.537 122.361,71.537 122.285,71.537C115.842,71.512 109.884,70.465 105.034,68.695C104.501,67.687 103.965,66.755 103.428,65.903C102.839,64.965 102.25,64.127 101.664,63.397C101.484,63.171 101.303,62.956 101.122,62.75C100.908,62.506 100.695,62.275 100.482,62.059C102.819,60.619 108.944,57.952 122.285,57.921C122.361,57.921 122.438,57.921 122.514,57.921C135.855,57.952 141.98,60.619 144.317,62.059C144.104,62.275 143.891,62.506 143.677,62.75C143.496,62.956 143.315,63.171 143.135,63.397C142.549,64.127 141.96,64.965 141.371,65.903C140.834,66.755 140.297,67.687 139.765,68.695C134.915,70.465 128.957,71.512 122.514,71.537ZM122.521,55.005C122.519,55.005 122.516,55.005 122.514,55.005C122.438,55.005 122.361,55.005 122.285,55.005C122.282,55.005 122.28,55.005 122.278,55.005C106.864,55.04 100.281,58.557 98.05,60.192C97.422,59.864 96.802,59.659 96.198,59.574C95.891,59.53 95.573,59.531 95.248,59.58C94.998,59.138 94.522,58.839 93.978,58.839L93.504,58.839C93.433,58.456 93.397,58.068 93.397,57.675C93.397,55.096 94.949,52.733 97.497,50.695C102.673,46.557 111.845,43.853 122.285,43.814C122.361,43.814 122.438,43.814 122.514,43.814C132.954,43.853 142.126,46.557 147.302,50.695C149.85,52.733 151.402,55.096 151.402,57.675C151.402,58.068 151.366,58.456 151.295,58.839L150.821,58.839C150.277,58.839 149.801,59.138 149.551,59.58C149.226,59.531 148.908,59.53 148.601,59.574C147.997,59.659 147.377,59.864 146.748,60.192C144.518,58.557 137.935,55.04 122.521,55.005ZM122.525,40.897C122.522,40.897 122.518,40.897 122.514,40.897C122.438,40.897 122.361,40.897 122.285,40.897C122.281,40.897 122.277,40.897 122.274,40.897C112.373,40.935 103.561,43.301 97.804,46.913C97.814,45.863 97.963,44.837 98.236,43.842C98.919,41.362 100.379,39.078 102.412,37.111C103.385,36.169 104.488,35.299 105.7,34.515C106.843,33.779 108.083,33.117 109.405,32.539C109.436,32.526 109.467,32.511 109.498,32.495C113.227,30.881 117.605,29.946 122.285,29.916C122.361,29.916 122.438,29.916 122.514,29.916C127.194,29.946 131.572,30.881 135.301,32.495C135.332,32.511 135.363,32.526 135.394,32.539C136.716,33.117 137.956,33.779 139.098,34.515C140.311,35.299 141.414,36.169 142.387,37.111C144.419,39.078 145.88,41.362 146.563,43.842C146.836,44.837 146.985,45.863 146.995,46.913C141.238,43.301 132.426,40.935 122.525,40.897ZM148.772,41.298C147.836,39.011 146.352,36.889 144.416,35.015C143.374,34.007 142.2,33.071 140.911,32.22C140.021,31.631 139.076,31.083 138.082,30.582C138.759,29.947 139.701,29.7 140.729,29.738C142.66,29.81 144.86,30.862 146.682,32.684C148.504,34.506 149.556,36.707 149.628,38.638C149.667,39.673 149.416,40.62 148.772,41.298ZM135.497,181.323C133.983,177.692 132.671,174.254 131.634,171.164C130.985,169.232 130.445,167.438 130.032,165.82C129.425,163.442 128.936,160.925 128.553,158.296C128.475,157.748 128.402,157.197 128.334,156.644L128.333,156.64C128.31,156.447 128.287,156.255 128.264,156.062C128.261,156.036 128.258,156.01 128.253,155.984C128.186,155.421 128.124,154.853 128.067,154.281L153.764,117.728L156.843,162.821L143.334,198.28C142.319,196.27 141.329,194.25 140.374,192.243C140.359,192.202 140.342,192.162 140.323,192.122C138.573,188.436 136.943,184.792 135.497,181.323ZM151.1,78.715L153.448,113.106L127.706,149.723C126.813,134.517 128.741,116.992 132.036,101.596L151.1,78.715ZM176.596,157.355L157.738,133.11L155.365,98.365L168.473,114.268C172.453,130.669 175.575,147.126 176.596,157.355ZM165.396,232.028L162.153,196.299L177.956,214.407C177.526,218.065 176.95,221.184 176.245,223.8C175.279,227.384 174.089,229.978 172.672,231.662C171.476,233.084 170.135,233.794 168.65,233.794C167.767,233.794 166.754,233.153 165.561,232.166C165.506,232.121 165.451,232.075 165.396,232.028ZM137.185,82.515C137.192,82.495 137.199,82.474 137.206,82.454C137.703,80.981 138.211,79.566 138.725,78.214C139.809,75.369 140.924,72.811 142.05,70.614C142.066,70.588 142.081,70.56 142.095,70.533C142.646,69.463 143.198,68.479 143.749,67.592C144.303,66.704 144.858,65.911 145.411,65.22C145.531,65.07 145.65,64.925 145.769,64.786C146.069,64.437 146.369,64.12 146.668,63.838C146.911,63.608 147.15,63.402 147.386,63.223C147.446,63.186 147.503,63.144 147.558,63.098C148.048,62.753 148.528,62.53 149.009,62.462C149.198,62.435 149.384,62.531 149.591,62.655C149.734,62.742 149.879,62.848 150.025,62.972L150.812,74.503L133.49,95.294C133.513,95.203 133.536,95.112 133.558,95.021C133.568,94.981 133.577,94.941 133.583,94.9C134.692,90.477 135.906,86.308 137.185,82.515ZM166.828,107.686L155.024,93.365L153.259,67.522C153.445,67.867 153.632,68.226 153.82,68.599C158.051,76.96 162.765,91.9 166.828,107.686ZM145.127,201.767L157.318,169.768L158.84,192.051C158.84,192.062 158.841,192.073 158.842,192.083L162.17,228.743C160.854,227.215 159.465,225.405 158.029,223.378C153.864,217.499 149.337,209.816 145.127,201.767ZM178.348,210.421L161.716,191.362C161.716,191.362 159.775,162.935 159.774,162.92L158.094,138.318L177.108,162.764C178.979,183.518 179.261,199.131 178.348,210.421ZM93.699,78.715L112.763,101.596C116.058,116.992 117.986,134.517 117.093,149.723L91.351,113.106L93.699,78.715ZM107.614,82.515C108.893,86.308 110.107,90.477 111.216,94.9C111.222,94.941 111.231,94.981 111.241,95.021C111.263,95.112 111.286,95.203 111.309,95.294L93.987,74.503L94.774,62.972C94.92,62.848 95.065,62.742 95.208,62.655C95.414,62.531 95.6,62.435 95.79,62.462C96.271,62.53 96.751,62.753 97.241,63.098C97.296,63.144 97.353,63.186 97.413,63.223C97.649,63.402 97.888,63.608 98.131,63.838C98.43,64.12 98.73,64.437 99.03,64.786C99.149,64.925 99.268,65.07 99.388,65.22C99.941,65.911 100.496,66.704 101.049,67.592C101.601,68.479 102.153,69.463 102.704,70.533C102.718,70.56 102.733,70.588 102.749,70.614C103.875,72.811 104.99,75.369 106.074,78.214C106.588,79.566 107.096,80.981 107.593,82.454C107.6,82.474 107.607,82.495 107.614,82.515ZM77.971,107.686C82.034,91.9 86.748,76.96 90.979,68.599C91.167,68.226 91.354,67.867 91.54,67.522L89.775,93.365L77.971,107.686ZM99.672,201.767C95.462,209.816 90.935,217.499 86.77,223.378C85.334,225.405 83.945,227.215 82.629,228.743L85.957,192.083C85.958,192.073 85.959,192.062 85.959,192.051L87.481,169.768L99.672,201.767ZM66.451,210.421C65.538,199.131 65.82,183.518 67.691,162.764L86.705,138.318C86.705,138.318 85.023,162.95 85.022,162.965L83.083,191.362L66.451,210.421ZM109.302,181.323C107.856,184.792 106.226,188.436 104.476,192.122C104.457,192.162 104.44,192.202 104.425,192.243C103.47,194.25 102.48,196.27 101.465,198.28L87.955,162.821L91.035,117.728L116.732,154.281C116.675,154.853 116.613,155.421 116.546,155.984C116.541,156.01 116.538,156.036 116.535,156.062C116.512,156.255 116.489,156.447 116.466,156.64L116.465,156.644C116.397,157.197 116.324,157.748 116.245,158.296C115.863,160.925 115.374,163.442 114.767,165.82C114.354,167.438 113.814,169.232 113.165,171.164C112.128,174.254 110.816,177.692 109.302,181.323ZM79.403,232.028C79.348,232.075 79.293,232.121 79.238,232.166C78.045,233.153 77.032,233.794 76.149,233.794C74.664,233.794 73.323,233.084 72.127,231.662C70.71,229.978 69.52,227.384 68.554,223.8C67.849,221.184 67.273,218.065 66.843,214.407L82.646,196.299L79.403,232.028ZM68.203,157.355C69.224,147.126 72.345,130.669 76.326,114.268L89.434,98.365L87.061,133.11L68.203,157.355ZM96.027,41.298C95.383,40.62 95.132,39.673 95.171,38.638C95.243,36.707 96.295,34.506 98.117,32.684C99.939,30.862 102.139,29.81 104.07,29.738C105.098,29.7 106.04,29.947 106.717,30.582C105.723,31.083 104.778,31.631 103.888,32.22C102.599,33.071 101.425,34.007 100.383,35.015C98.447,36.889 96.963,39.011 96.027,41.298Z"/>
***REMOVED******REMOVED******REMOVED******REMOVED******REMOVED******REMOVED***</g>
***REMOVED******REMOVED******REMOVED******REMOVED***</g>
***REMOVED******REMOVED***</g>
</svg>
